PathFileType	4	(X/Y/Z)	./resultDataOpenSim/trcMotMarkerGrf/sub06/qtm-05-02.trc
DataRate	CameraRate	NumFrames	NumMarkers	Units	OrigDataRate	OrigDataStartFrame	OrigNumFrames
250.000000	250.000000	7	24	m	250.000000	409	545
Frame#	Time	L.Toe.Tip			R.Toe.Tip			L.Ankle.Lat			R.Ankle.Lat			L.Ankle.Med			R.Ankle.Med			L.Heel			R.Heel			L.Knee.Lat			R.Knee.Lat			L.Knee.Med			R.Knee.Med			L.Thigh.Upper			R.Thigh.Upper			L.ASIS			R.ASIS			V.Sacral			L.Acromium			R.Acromium			C7			L.Elbow			R.Elbow			L.Wrist.Lat			R.Wrist.Lat
		X1	Y1	Z1	X2	Y2	Z2	X3	Y3	Z3	X4	Y4	Z4	X5	Y5	Z5	X6	Y6	Z6	X7	Y7	Z7	X8	Y8	Z8	X9	Y9	Z9	X10	Y10	Z10	X11	Y11	Z11	X12	Y12	Z12	X13	Y13	Z13	X14	Y14	Z14	X15	Y15	Z15	X16	Y16	Z16	X17	Y17	Z17	X18	Y18	Z18	X19	Y19	Z19	X20	Y20	Z20	X21	Y21	Z21	X22	Y22	Z22	X23	Y23	Z23	X24	Y24	Z24

409	1.632	1.4333138	0.092670368	-0.028778107	0.87359913	0.035502702	0.12356414	1.3051052	0.096783145	-0.041127092	0.73870082	0.066322137	0.14398883	1.313532	0.11445378	0.042641175	0.76612164	0.091601925	0.0601308	1.245272	0.051881467	0.009505304	0.68500048	0.052075477	0.081861431	1.2616365	0.46905095	-0.054250517	0.89588208	0.42814424	0.18762626	1.2558444	0.4585051	0.067683326	0.87462997	0.43077148	0.057085871	1.0556189	0.80299402	-0.091858292	0.97849644	0.7822401	0.24876093	1.1130783	0.84521672	-0.03063288	1.0873009	0.83156328	0.21645972	0.91505193	0.91249737	0.075250153	1.0277968	1.3260061	-0.081101553	1.0473111	1.3048562	0.28143108	0.95914514	1.3521331	0.10492389	0.89986036	1.0441074	-0.12864132	1.0614677	0.97873167	0.34464714	0.94493407	0.81806834	-0.21330664	1.3007642	0.94323559	0.28295458
410	1.636	1.447658	0.095257151	-0.027001294	0.87367209	0.035448359	0.12354933	1.3192215	0.096327725	-0.03974269	0.73908235	0.066889684	0.14384275	1.3271689	0.11438572	0.043775474	0.76670968	0.091935198	0.059801181	1.2605494	0.049858464	0.011310714	0.68527481	0.053057559	0.08148735	1.2663998	0.46658715	-0.053467956	0.89928733	0.42745614	0.18746728	1.260582	0.45641838	0.068691699	0.87833302	0.43024676	0.056851833	1.0616199	0.8012056	-0.091708332	0.98352533	0.78082207	0.24839354	1.1191883	0.84334733	-0.030489318	1.0926442	0.82988214	0.21660269	0.92062117	0.91117817	0.07423079	1.0334298	1.3243885	-0.081389154	1.0529399	1.303446	0.28130153	0.96484163	1.3507514	0.10462962	0.90502382	1.0426285	-0.12841768	1.0676752	0.97730985	0.34488436	0.94889813	0.8167108	-0.21340839	1.3067	0.94189059	0.28265005
411	1.64	1.4614855	0.097820424	-0.025271655	0.87374202	0.0353981	0.12353663	1.3328493	0.096015406	-0.038422807	0.73942589	0.067520038	0.14369061	1.3404438	0.11447578	0.044930198	0.76729367	0.092289472	0.059444907	1.2754369	0.048077665	0.013234129	0.68557871	0.05413225	0.081077257	1.2712582	0.4641342	-0.052597331	0.90278755	0.42677881	0.18733345	1.2653341	0.45433446	0.069765004	0.8821696	0.42969726	0.05660589	1.067639	0.79941414	-0.091563424	0.98870285	0.77943882	0.24809547	1.1253262	0.84150384	-0.030378677	1.0980724	0.82821936	0.2167073	0.92645514	0.90979397	0.073420962	1.0391144	1.3228025	-0.081684258	1.0585911	1.3020625	0.28114608	0.970524	1.349426	0.10434804	0.91051968	1.0410542	-0.12831134	1.0738353	0.97591085	0.34509716	0.95298443	0.81536387	-0.21349556	1.3126039	0.94046353	0.28238433
412	1.644	1.4747579	0.1003326	-0.0236571	0.87380806	0.035352613	0.12352573	1.3459521	0.095817754	-0.037157939	0.73966332	0.068242657	0.14354235	1.3532963	0.11468161	0.046090982	0.76788258	0.092701776	0.059174594	1.2898812	0.046602597	0.015013875	0.68590653	0.055297718	0.08073788	1.2762193	0.46175741	-0.051665543	0.9063951	0.42611196	0.18722099	1.270122	0.45226543	0.070896167	0.88612153	0.42910859	0.056365926	1.0736854	0.79763703	-0.091441494	0.99407384	0.77810817	0.24791632	1.1314912	0.83969736	-0.030305433	1.1036858	0.82657087	0.21672064	0.93228784	0.90840423	0.07288563	1.0448371	1.3212517	-0.0819903	1.0642632	1.3007059	0.28096121	0.97607781	1.3482109	0.10415069	0.91624831	1.0394389	-0.12828815	1.0799497	0.97453828	0.34528711	0.9572025	0.81403647	-0.21356877	1.3184724	0.93896403	0.28215495
413	1.648	1.487415	0.1027864	-0.022260979	0.87386983	0.035313113	0.12351569	1.3585045	0.095711791	-0.035934022	0.73981487	0.069077397	0.1434679	1.365655	0.11498458	0.047223865	0.76849837	0.093205203	0.059094845	1.3037746	0.045408244	0.016604729	0.68624046	0.056556568	0.080575184	1.2812874	0.45950982	-0.050690983	0.91011968	0.42545387	0.18712445	1.274957	0.45022557	0.072074413	0.89015974	0.42847899	0.056156927	1.0797716	0.7958876	-0.091364622	0.99959127	0.77681043	0.24780201	1.1376873	0.83794026	-0.030270552	1.1095988	0.82493045	0.2165843	0.93741469	0.90720926	0.072775233	1.0505912	1.3197378	-0.082310143	1.0699633	1.2993766	0.28074731	0.98147079	1.3471225	0.10406469	0.92208953	1.0378447	-0.12830467	1.0860143	0.9731959	0.34544995	0.96155652	0.81273038	-0.21363236	1.3242964	0.93739708	0.28195485
414	1.652	1.4993838	0.10519555	-0.021176016	0.87393047	0.035278902	0.12350459	1.3704719	0.095679436	-0.034751818	0.74002038	0.069999395	0.14350862	1.3773765	0.1153457	0.048273078	0.76915181	0.09381	0.059211617	1.3169876	0.044399162	0.018140153	0.6865648	0.057917787	0.080614202	1.286474	0.45741602	-0.049670719	0.91396808	0.42480113	0.18703953	1.2798527	0.44823341	0.07329155	0.89426943	0.4278206	0.055996483	1.0859056	0.79416987	-0.091347842	1.0051259	0.77549881	0.24760551	1.1439211	0.83624361	-0.030279096	1.1158039	0.82330312	0.21630134	0.94101928	0.90646317	0.07325993	1.0563844	1.3182575	-0.082645964	1.0757058	1.2980753	0.28050836	0.98691223	1.3460232	0.10394797	0.92796546	1.0363105	-0.1283322	1.0920209	0.97188703	0.34557904	0.96604346	0.81144114	-0.2136949	1.3300747	0.93575946	0.28177745
415	1.656	1.5106171	0.10756971	-0.020436459	0.87399612	0.035248052	0.12348986	1.3818184	0.095703523	-0.033628289	0.74041167	0.070967363	0.14363625	1.3883339	0.11571808	0.049199105	0.76983237	0.094509238	0.059451503	1.3294296	0.043491133	0.019690904	0.68687652	0.05939285	0.080826843	1.2917957	0.45548349	-0.048602184	0.91794499	0.42414761	0.18696377	1.2848231	0.44630939	0.074544406	0.89845993	0.42714736	0.055889061	1.0920888	0.79248238	-0.091395488	1.0105996	0.77415528	0.24724093	1.1502002	0.8346144	-0.030336112	1.1221194	0.82171527	0.21596589	0.94311274	0.90618235	0.074243253	1.0622273	1.3168067	-0.083000443	1.0814999	1.2968038	0.28024529	0.99270731	1.3447023	0.10358156	0.93385238	1.034847	-0.12836173	1.0979689	0.97061713	0.34567488	0.97065835	0.81016448	-0.21376349	1.3358114	0.93404685	0.28161785
